<?xml version="1.0" encoding="utf-8"?>
<!-- Generator: Adobe Illustrator 19.0.0, SVG Export Plug-In . SVG Version: 6.00 Build 0)  -->
<svg version="1.1" id="Layer_1" xmlns="http://www.w3.org/2000/svg" xmlns:xlink="http://www.w3.org/1999/xlink" x="0px" y="0px"
	 viewBox="0 0 450 130" style="enable-background:new 0 0 450 130;" xml:space="preserve">
<style type="text/css">
	.st0{clip-path:url(#XMLID_49_);fill:url(#XMLID_51_);}
	.st1{clip-path:url(#XMLID_49_);fill:url(#XMLID_52_);}
	.st2{clip-path:url(#XMLID_49_);fill:url(#XMLID_54_);}
	.st3{clip-path:url(#XMLID_49_);fill:url(#XMLID_55_);}
	.st4{fill:#FFFFFF;}
</style>
<g id="PLAY_1_">
	<defs>
		<path id="XMLID_41_" d="M72.1,47.8l-23-13.3c0,0-41.8-24.1-44.3-25.6C2.4,7.6,0,8.4,0,11.4c0,4.9,0,51.6,0,51.6s0,50.4,0,52.6
			c0,2.2,1.8,3.2,3.9,1.9c2.1-1.2,45.3-26.2,45.3-26.2l23-13.3c0,0,19.5-11.2,22.1-12.7c2.6-1.5,2.3-3.5,0.2-4.7
			C92.2,59.4,72.1,47.8,72.1,47.8z"/>
	</defs>
	<clipPath id="XMLID_49_">
		<use xlink:href="#XMLID_41_"  style="overflow:visible;"/>
	</clipPath>
	<linearGradient id="XMLID_51_" gradientUnits="userSpaceOnUse" x1="28.4325" y1="6.5523" x2="28.4325" y2="119.3218">
		<stop  offset="0" style="stop-color:#257CB0"/>
		<stop  offset="0.2863" style="stop-color:#4A93B5"/>
		<stop  offset="0.767" style="stop-color:#78BCBB"/>
		<stop  offset="1" style="stop-color:#89CFBD"/>
	</linearGradient>
	<polygon id="XMLID_45_" class="st0" points="0,6.6 0,62.9 0,119.3 56.9,62.9 	"/>
	<linearGradient id="XMLID_52_" gradientUnits="userSpaceOnUse" x1="4.672984e-08" y1="34.54" x2="72.1384" y2="34.54">
		<stop  offset="0" style="stop-color:#52C1AD"/>
		<stop  offset="1" style="stop-color:#DEE89A"/>
	</linearGradient>
	<polygon id="XMLID_44_" class="st1" points="72.1,47.8 49.2,34.5 0,6.1 0,6.6 56.9,62.9 	"/>
	<linearGradient id="XMLID_54_" gradientUnits="userSpaceOnUse" x1="36.0687" y1="62.938" x2="36.0687" y2="119.7319">
		<stop  offset="0" style="stop-color:#EC413D"/>
		<stop  offset="0.1668" style="stop-color:#DA4452"/>
		<stop  offset="0.5748" style="stop-color:#B0487A"/>
		<stop  offset="0.8619" style="stop-color:#954A92"/>
		<stop  offset="1" style="stop-color:#8A4A9D"/>
	</linearGradient>
	<polygon id="XMLID_43_" class="st2" points="0,119.3 0,119.7 49.2,91.3 72.1,78.1 56.9,62.9 	"/>
	<linearGradient id="XMLID_55_" gradientUnits="userSpaceOnUse" x1="77.6176" y1="47.7928" x2="77.6176" y2="78.0812">
		<stop  offset="0" style="stop-color:#F58879"/>
		<stop  offset="0.1194" style="stop-color:#F69079"/>
		<stop  offset="0.7128" style="stop-color:#FCB877"/>
		<stop  offset="1" style="stop-color:#FEC874"/>
	</linearGradient>
	<polygon id="XMLID_42_" class="st3" points="72.1,47.8 56.9,62.9 72.1,78.1 98.4,62.9 	"/>
</g>
<g id="XMLID_103_">
	<path id="XMLID_111_" class="st4" d="M358,85c-2.1,0-4.1-0.4-5.8-1.2c-1.8-0.8-3.2-2-4.4-3.6h-0.4c0.2,1.9,0.4,3.7,0.4,5.4v13.5h-5
		V51.6h4l0.7,4.5h0.2c1.3-1.8,2.8-3.1,4.5-3.9c1.7-0.8,3.6-1.2,5.8-1.2c4.3,0,7.7,1.5,10.1,4.5c2.4,3,3.5,7.1,3.5,12.5
		c0,5.4-1.2,9.6-3.6,12.6C365.6,83.5,362.3,85,358,85z M357.3,55.2c-3.4,0-5.8,0.9-7.3,2.8c-1.5,1.9-2.3,4.8-2.3,8.9V68
		c0,4.6,0.8,7.9,2.3,9.9c1.5,2,4,3,7.4,3c2.8,0,5.1-1.1,6.7-3.4c1.6-2.3,2.4-5.5,2.4-9.5c0-4.1-0.8-7.2-2.4-9.4
		C362.5,56.3,360.2,55.2,357.3,55.2z"/>
	<path id="XMLID_109_" class="st4" d="M383.1,84.4h-5V37.8h5V84.4z"/>
	<path id="XMLID_106_" class="st4" d="M411.7,84.4l-1-4.7h-0.2c-1.6,2.1-3.3,3.4-4.9,4.2c-1.6,0.7-3.7,1.1-6.1,1.1
		c-3.3,0-5.8-0.8-7.6-2.5c-1.8-1.7-2.8-4.1-2.8-7.2c0-6.6,5.3-10.1,15.9-10.4l5.6-0.2v-2c0-2.6-0.6-4.5-1.7-5.7
		c-1.1-1.2-2.9-1.8-5.3-1.8c-2.7,0-5.8,0.8-9.3,2.5l-1.5-3.8c1.6-0.9,3.4-1.6,5.3-2.1c1.9-0.5,3.9-0.7,5.8-0.7
		c3.9,0,6.8,0.9,8.7,2.6c1.9,1.7,2.8,4.5,2.8,8.3v22.4H411.7z M400.5,80.9c3.1,0,5.5-0.8,7.3-2.5c1.8-1.7,2.6-4.1,2.6-7.1v-3l-5,0.2
		c-3.9,0.1-6.8,0.8-8.5,1.8c-1.7,1.1-2.6,2.8-2.6,5.1c0,1.8,0.5,3.2,1.6,4.1C397,80.4,398.5,80.9,400.5,80.9z"/>
	<path id="XMLID_104_" class="st4" d="M418.2,51.6h5.3l7.2,18.7c1.6,4.3,2.6,7.4,2.9,9.2h0.2c0.3-1,0.8-2.8,1.6-5.2
		c0.8-2.5,3.5-10,8.1-22.7h5.3l-14.1,37.3c-1.4,3.7-3,6.3-4.9,7.9c-1.9,1.5-4.2,2.3-6.9,2.3c-1.5,0-3-0.2-4.5-0.5v-4
		c1.1,0.2,2.3,0.4,3.7,0.4c3.4,0,5.8-1.9,7.3-5.7l1.8-4.7L418.2,51.6z"/>
</g>
<g id="XMLID_81_">
	<path id="XMLID_99_" class="st4" d="M266,54.6c1.6,1.3,4.9,4,4.9,9.3c0,5.1-2.9,7.5-5.8,9.7c-0.9,0.9-1.9,1.9-1.9,3.4
		c0,1.5,1,2.3,1.8,2.9l2.5,1.9c3,2.5,5.8,4.9,5.8,9.6c0,6.4-6.2,13-18,13c-9.9,0-14.7-4.7-14.7-9.8c0-2.5,1.2-6,5.3-8.4
		c4.2-2.6,10-2.9,13.1-3.2c-1-1.2-2.1-2.5-2.1-4.7c0-1.2,0.3-1.9,0.7-2.7c-0.8,0.1-1.5,0.1-2.2,0.1c-7.3,0-11.4-5.4-11.4-10.8
		c0-3.2,1.4-6.7,4.4-9.2c3.9-3.2,8.6-3.8,12.3-3.8h14.1l-4.4,2.5H266z M261.1,85.1c-0.5-0.1-0.9-0.1-1.6-0.1c-0.6,0-4.3,0.1-7.2,1.1
		c-1.5,0.5-5.9,2.2-5.9,7.1c0,4.9,4.7,8.4,12.1,8.4c6.6,0,10.1-3.2,10.1-7.4C268.6,90.6,266.3,88.8,261.1,85.1z M263.1,72.1
		c1.6-1.6,1.7-3.8,1.7-5c0-4.9-2.9-12.6-8.6-12.6c-1.8,0-3.7,0.9-4.8,2.3c-1.2,1.4-1.5,3.3-1.5,5.1c0,4.6,2.7,12.2,8.6,12.2
		C260.2,74,262,73.2,263.1,72.1z"/>
	<path id="XMLID_96_" class="st4" d="M222.8,84c-10.9,0-16.7-8.5-16.7-16.2c0-9,7.3-16.6,17.7-16.6c10.1,0,16.4,7.9,16.4,16.2
		C240.2,75.4,234,84,222.8,84z M231.4,78.4c1.6-2.2,2.1-4.9,2.1-7.6c0-6-2.9-17.5-11.4-17.5c-2.3,0-4.5,0.9-6.2,2.3
		c-2.7,2.4-3.2,5.4-3.2,8.4c0,6.8,3.4,17.9,11.6,17.9C227,81.9,229.8,80.6,231.4,78.4z"/>
	<path id="XMLID_93_" class="st4" d="M185.7,84c-10.9,0-16.7-8.5-16.7-16.2c0-9,7.3-16.6,17.7-16.6c10.1,0,16.4,7.9,16.4,16.2
		C203.1,75.4,196.8,84,185.7,84z M194.2,78.4c1.6-2.2,2.1-4.9,2.1-7.6c0-6-2.9-17.5-11.4-17.5c-2.3,0-4.5,0.9-6.2,2.3
		c-2.7,2.4-3.2,5.4-3.2,8.4c0,6.8,3.4,17.9,11.6,17.9C189.9,81.9,192.7,80.6,194.2,78.4z"/>
	<path id="XMLID_91_" class="st4" d="M163.7,82.9l-9.8,2.3c-4,0.6-7.6,1.2-11.4,1.2c-19,0-26.2-14-26.2-24.9
		c0-13.4,10.3-25.7,27.8-25.7c3.7,0,7.3,0.5,10.5,1.4c5.2,1.4,7.6,3.2,9.1,4.3l-5.7,5.4l-2.4,0.5l1.7-2.8c-2.3-2.3-6.6-6.5-14.7-6.5
		c-10.9,0-19.1,8.3-19.1,20.3c0,12.9,9.4,25.1,24.4,25.1c4.4,0,6.7-0.9,8.7-1.7V70.8l-10.4,0.6l5.5-3h14.6l-1.8,1.7
		c-0.5,0.4-0.6,0.6-0.7,1.1c-0.1,0.6-0.1,2.6-0.1,3.3V82.9z"/>
	<path id="XMLID_26_" class="st4" d="M287.7,80.9c-2.3-0.2-2.7-0.6-2.7-3.3v-0.8V38.7c0-0.1,0-0.3,0-0.4c0.3-2.4,1-2.8,3.1-4.1h-9.8
		l-5.2,2.5h5.3v0l0,0v40.2v2.3c0,1.4-0.3,1.6-1.9,3.6h12.2l2.5-1.5C290.1,81.1,288.9,81.1,287.7,80.9z"/>
	<path id="XMLID_87_" class="st4" d="M315.8,81.6c-0.7,0.4-1.5,0.9-2.3,1.2c-2.3,1-4.6,1.3-6.6,1.3c-2.2,0-5.6-0.1-9.1-2.7
		c-4.9-3.4-7-9.3-7-14.4c0-10.6,8.6-15.8,15.7-15.8c2.5,0,5,0.6,7,1.9c3.4,2.3,4.3,5.2,4.8,6.8l-16.1,6.5l-5.3,0.4
		c1.7,8.7,7.6,13.7,14.1,13.7c3.5,0,6-1.2,8.3-2.4L315.8,81.6z M309.3,61.2c1.3-0.5,2-0.9,2-1.8c0-2.7-3.1-5.9-6.8-5.9
		c-2.7,0-7.9,2.1-7.9,9.5c0,1.2,0.1,2.4,0.2,3.6L309.3,61.2z"/>
	<g id="XMLID_82_">
		<path id="XMLID_85_" class="st4" d="M322.4,51.7v4.5h-0.5v-4.5h-1.5v-0.5h3.5v0.5H322.4z"/>
		<path id="XMLID_83_" class="st4" d="M328.5,56.2v-4.6h0l-1.4,4.6h-0.4l-1.4-4.6h0v4.6h-0.5v-5h0.9l1.3,4h0l1.2-4h0.9v5H328.5z"/>
	</g>
</g>
<g id="XMLID_47_">
	<path id="XMLID_78_" class="st4" d="M130,22.3h-3.4c0-0.5-0.3-1.8-1-4h-4.9c-0.7,2.2-1,3.5-1,4h-3.2c0-0.3,0.8-2.6,2.5-6.8
		c1.7-4.3,2.5-6.6,2.5-7.1h4c0,0.4,0.8,2.7,2.3,7C129.2,19.6,130,21.9,130,22.3z M125,16.2c-1.2-3.7-1.8-5.7-1.8-6H123
		c0,0.3-0.6,2.3-1.9,6H125z"/>
	<path id="XMLID_76_" class="st4" d="M143.8,22.3h-2.6c0-0.3-1-1.8-2.9-4.6c-2.1-2.9-3.2-5-3.5-6h-0.2c0.2,1.6,0.3,3,0.3,4.2
		c0,1.8,0,3.9,0.1,6.4h-2.6c0.1-2.2,0.2-4.6,0.2-7.3c0-2.6-0.1-4.8-0.2-6.6h3.2c0,0.4,0.9,1.9,2.6,4.5c1.9,2.8,3,4.7,3.2,5.7h0.2
		c-0.2-1.6-0.3-3-0.3-4.3c0-1.9-0.1-3.9-0.1-5.9h2.7c-0.1,1.8-0.1,4-0.1,6.6C143.6,17.7,143.7,20.1,143.8,22.3z"/>
	<path id="XMLID_73_" class="st4" d="M159.3,14.8c0,2-0.6,3.8-1.9,5.3c-1.3,1.5-3.1,2.3-5.5,2.3c-1.1,0-2.5,0-4.4-0.1
		c0.1-2.2,0.1-4.6,0.1-7.3c0-2.6,0-4.8-0.1-6.6h1.9c0.3,0,0.8,0,1.4,0c0.6,0,1,0,1.2,0c2.6,0,4.4,0.6,5.6,1.9
		C158.7,11.5,159.3,13,159.3,14.8z M156.3,15.3c0-1.4-0.4-2.5-1.2-3.5c-0.8-0.9-2-1.4-3.7-1.4c-0.3,0-0.7,0-1.3,0.1
		c0.1,1.4,0.1,2.9,0.1,4.5c0,1.7,0,3.4,0.1,5.1c0.5,0.1,0.9,0.1,1.4,0.1c1.5,0,2.7-0.5,3.4-1.4C156,17.8,156.3,16.7,156.3,15.3z"/>
	<path id="XMLID_70_" class="st4" d="M173.5,22.3h-3.2c-0.8-2.5-1.5-4.1-1.9-4.7c-0.4-0.6-1.2-0.9-2.1-0.9c-0.4,0-0.8,0-1.2,0
		c0,1.8,0,3.7,0.1,5.5h-3c0.1-2.2,0.1-4.6,0.1-7.3c0-2.6,0-4.8-0.1-6.6h1.8c0.2,0,0.7,0,1.3,0c0.7,0,1.3,0,1.9,0
		c3.3,0,4.9,1.1,4.9,3.4c0,1.8-0.9,3-2.8,3.7v0.2c0.7,0.2,1.4,0.8,1.9,1.7C171.9,18.1,172.6,19.8,173.5,22.3z M169.5,12.4
		c0-1.4-0.9-2.1-2.7-2.1c-0.7,0-1.3,0-1.8,0.1c0.1,1.1,0.1,2.5,0.1,4.3c0.4,0,0.7,0,1,0C168.4,14.8,169.5,14,169.5,12.4z"/>
	<path id="XMLID_67_" class="st4" d="M188.9,15.1c0,2.2-0.7,4-2,5.4c-1.3,1.4-3,2.2-5,2.2c-1.9,0-3.5-0.7-4.7-2
		c-1.3-1.3-1.9-3-1.9-5c0-2.2,0.7-4,2-5.4c1.3-1.4,3-2.2,5-2.2c1.9,0,3.5,0.7,4.7,2C188.2,11.3,188.9,13,188.9,15.1z M185.9,15.4
		c0-1.5-0.4-2.7-1.1-3.6c-0.8-0.9-1.7-1.4-2.8-1.4c-1,0-1.9,0.5-2.7,1.4c-0.7,0.9-1.1,2.1-1.1,3.5c0,1.5,0.4,2.7,1.1,3.6
		c0.8,0.9,1.7,1.4,2.8,1.4c1,0,1.9-0.5,2.7-1.4C185.6,18,185.9,16.8,185.9,15.4z"/>
	<path id="XMLID_65_" class="st4" d="M194.9,22.3h-3c0.1-2.2,0.1-4.6,0.1-7.3c0-2.6,0-4.8-0.1-6.6h3c-0.1,1.8-0.1,4-0.1,6.6
		C194.8,17.7,194.8,20.1,194.9,22.3z"/>
	<path id="XMLID_62_" class="st4" d="M210.4,14.8c0,2-0.6,3.8-1.9,5.3c-1.3,1.5-3.1,2.3-5.5,2.3c-1.1,0-2.5,0-4.4-0.1
		c0.1-2.2,0.1-4.6,0.1-7.3c0-2.6,0-4.8-0.1-6.6h1.9c0.3,0,0.8,0,1.4,0c0.6,0,1,0,1.2,0c2.6,0,4.4,0.6,5.6,1.9
		C209.8,11.5,210.4,13,210.4,14.8z M207.5,15.3c0-1.4-0.4-2.5-1.2-3.5c-0.8-0.9-2-1.4-3.7-1.4c-0.3,0-0.7,0-1.3,0.1
		c0.1,1.4,0.1,2.9,0.1,4.5c0,1.7,0,3.4,0.1,5.1c0.5,0.1,0.9,0.1,1.4,0.1c1.5,0,2.7-0.5,3.4-1.4C207.1,17.8,207.5,16.7,207.5,15.3z"
		/>
	<path id="XMLID_59_" class="st4" d="M231,22.3h-3.4c0-0.5-0.3-1.8-1-4h-4.9c-0.7,2.2-1,3.5-1,4h-3.2c0-0.3,0.8-2.6,2.5-6.8
		c1.7-4.3,2.5-6.6,2.5-7.1h4c0,0.4,0.8,2.7,2.3,7C230.2,19.6,231,21.9,231,22.3z M226,16.2c-1.2-3.7-1.8-5.7-1.8-6H224
		c0,0.3-0.6,2.3-1.9,6H226z"/>
	<path id="XMLID_56_" class="st4" d="M243.4,12c0,1.7-0.6,3-1.9,3.8c-1.3,0.8-2.8,1.2-4.7,1.2c-0.3,0-0.6,0-0.7,0
		c0,1.3,0,3.1,0.1,5.3h-3c0.1-2.1,0.1-4.5,0.1-7.3c0-2.6,0-4.8-0.1-6.6h1.9c0.3,0,0.8,0,1.5,0c0.7,0,1.4,0,1.9,0
		c1.4,0,2.5,0.3,3.4,0.9C243,9.8,243.4,10.8,243.4,12z M240.7,12.6c0-1.5-1-2.3-3-2.3c-0.5,0-1,0.1-1.6,0.2c0.1,1.3,0.1,2.9,0.1,4.6
		c0.2,0,0.4,0,0.6,0C239.4,15.1,240.7,14.2,240.7,12.6z"/>
	<path id="XMLID_53_" class="st4" d="M256.3,12c0,1.7-0.6,3-1.9,3.8c-1.3,0.8-2.8,1.2-4.7,1.2c-0.3,0-0.6,0-0.7,0
		c0,1.3,0,3.1,0.1,5.3h-3c0.1-2.1,0.1-4.5,0.1-7.3c0-2.6,0-4.8-0.1-6.6h1.9c0.3,0,0.8,0,1.5,0c0.7,0,1.4,0,1.9,0
		c1.4,0,2.5,0.3,3.4,0.9C255.8,9.8,256.3,10.8,256.3,12z M253.5,12.6c0-1.5-1-2.3-3-2.3c-0.5,0-1,0.1-1.6,0.2
		c0.1,1.3,0.1,2.9,0.1,4.6c0.2,0,0.4,0,0.6,0C252.2,15.1,253.5,14.2,253.5,12.6z"/>
	<path id="XMLID_50_" class="st4" d="M277.2,15.1c0,2.2-0.7,4-2,5.4c-1.3,1.4-3,2.2-5,2.2c-1.9,0-3.5-0.7-4.7-2
		c-1.3-1.3-1.9-3-1.9-5c0-2.2,0.7-4,2-5.4c1.3-1.4,3-2.2,5-2.2c1.9,0,3.5,0.7,4.7,2C276.6,11.3,277.2,13,277.2,15.1z M274.3,15.4
		c0-1.5-0.4-2.7-1.1-3.6s-1.7-1.4-2.8-1.4c-1,0-1.9,0.5-2.7,1.4c-0.7,0.9-1.1,2.1-1.1,3.5c0,1.5,0.4,2.7,1.1,3.6
		c0.8,0.9,1.7,1.4,2.8,1.4c1,0,1.9-0.5,2.7-1.4C273.9,18,274.3,16.8,274.3,15.4z"/>
	<path id="XMLID_48_" class="st4" d="M291.7,22.3h-2.6c0-0.3-1-1.8-2.9-4.6c-2.1-2.9-3.2-5-3.5-6h-0.2c0.2,1.6,0.3,3,0.3,4.2
		c0,1.8,0,3.9,0.1,6.4h-2.6c0.1-2.2,0.2-4.6,0.2-7.3c0-2.6-0.1-4.8-0.2-6.6h3.2c0,0.4,0.9,1.9,2.6,4.5c1.9,2.8,3,4.7,3.2,5.7h0.2
		c-0.2-1.6-0.3-3-0.3-4.3c0-1.9,0-3.9-0.1-5.9h2.7c-0.1,1.8-0.1,4-0.1,6.6C291.6,17.7,291.6,20.1,291.7,22.3z"/>
</g>
</svg>
