<?xml version="1.0" encoding="utf-8"?>
<!-- Generator: Adobe Illustrator 19.0.0, SVG Export Plug-In . SVG Version: 6.00 Build 0)  -->
<svg version="1.1" id="Layer_1" xmlns="http://www.w3.org/2000/svg" xmlns:xlink="http://www.w3.org/1999/xlink" x="0px" y="0px"
	 viewBox="0 0 450 130" style="enable-background:new 0 0 450 130;" xml:space="preserve">
<style type="text/css">
	.st0{fill:#FFFFFF;}
</style>
<g id="XMLID_50_">
	<g id="XMLID_51_">
		<path id="XMLID_116_" class="st0" d="M51.6,4.7H9.2C4.1,4.7,0,8.8,0,13.9v94c0,5.1,4.1,9.2,9.2,9.2h42.5c5.1,0,9.2-4.1,9.2-9.2
			v-94C60.8,8.9,56.7,4.7,51.6,4.7z M30.5,110.4c-3.4,0-6.1-2.7-6.1-6.1c0-3.4,2.7-6.1,6.1-6.1s6.1,2.7,6.1,6.1
			C36.6,107.7,33.8,110.4,30.5,110.4z M53.6,95.1H7.2V25.8h46.3V95.1z"/>
		<g id="XMLID_71_">
			<path id="XMLID_113_" class="st0" d="M95.6,21.5l-2.5,7.8h-3.4l8.5-24.8h3.9l8.5,24.8H107l-2.6-7.8H95.6z M103.8,18.9l-2.4-7.1
				c-0.5-1.6-0.9-3.1-1.2-4.5h-0.2c-0.3,1.4-0.7,3-1.2,4.5l-2.4,7.2h7.5V18.9z"/>
			<path id="XMLID_43_" class="st0" d="M113.8,11.4l3.5,10c0.6,1.6,1.1,3.2,1.4,4.6h0.1c0.4-1.4,0.9-3,1.5-4.6l3.5-10h3.4l-7,17.8
				H117l-6.8-17.8H113.8z"/>
			<path id="XMLID_109_" class="st0" d="M142.2,25.1c0,1.5,0.1,3.1,0.3,4.3h-3l-0.3-2.2h-0.1c-0.9,1.4-3,2.6-5.5,2.6
				c-3.6,0-5.5-2.5-5.5-5.1c0-4.3,3.9-6.6,10.7-6.6v-0.4c0-1.4-0.4-4.2-4.1-4.1c-1.7,0-3.5,0.5-4.7,1.3l-0.6-2.2
				c1.4-0.9,3.7-1.5,5.9-1.5c5.5,0,6.8,3.8,6.8,7.3V25.1z M138.9,20.2c-3.6-0.1-7.5,0.5-7.5,4c0,2.1,1.4,3.1,3.1,3.1
				c2.3,0,3.9-1.4,4.4-3c0.1-0.3,0.1-0.7,0.1-1L138.9,20.2L138.9,20.2z"/>
			<path id="XMLID_106_" class="st0" d="M148.7,8.2c-1.2,0-2-0.9-2-2.1c0-1.1,0.8-2,2.1-2c1.2,0,2,0.9,2,2
				C150.8,7.2,150,8.2,148.7,8.2L148.7,8.2z M147.2,29.3V11.5h3.3v17.8H147.2z"/>
			<path id="XMLID_38_" class="st0" d="M155.6,3.2h3.3v26.2h-3.3V3.2z"/>
			<path id="XMLID_102_" class="st0" d="M176.6,25.1c0,1.5,0.1,3.1,0.3,4.3h-3l-0.3-2.2h-0.1c-0.9,1.4-3,2.6-5.5,2.6
				c-3.6,0-5.5-2.5-5.5-5.1c0-4.3,3.9-6.6,10.7-6.6v-0.4c0-1.4-0.4-4.2-4.1-4.1c-1.7,0-3.5,0.5-4.7,1.3l-0.7-2.1
				c1.4-0.9,3.7-1.5,5.9-1.5c5.5,0,6.8,3.8,6.8,7.3v6.5H176.6z M173.4,20.2c-3.6-0.1-7.5,0.5-7.5,4c0,2.1,1.4,3.1,3.1,3.1
				c2.3,0,3.9-1.4,4.4-3c0.1-0.3,0.1-0.7,0.1-1V20.2z"/>
			<path id="XMLID_99_" class="st0" d="M181.6,3.2h3.3v11.2h0.1c1.1-2,3.2-3.3,6.1-3.3c4.4,0,7.5,3.7,7.5,9.1c0,6.4-4.1,9.6-8,9.6
				c-2.5,0-4.6-1-6-3.4h-0.1l-0.2,3h-2.7c0.1-1.2,0.1-3.1,0.1-4.6L181.6,3.2L181.6,3.2z M184.8,22.1c0,0.4,0,0.8,0.1,1.2
				c0.6,2.2,2.5,3.8,4.9,3.8c3.5,0,5.4-2.7,5.4-6.8c0-3.6-1.8-6.6-5.3-6.6c-2.2,0-4.3,1.5-4.9,4c-0.1,0.4-0.2,0.8-0.2,1.3
				L184.8,22.1L184.8,22.1z"/>
			<path id="XMLID_33_" class="st0" d="M202.4,3.2h3.3v26.2h-3.3V3.2z"/>
			<path id="XMLID_95_" class="st0" d="M212.6,20.9c0.1,4.4,2.9,6.2,6.1,6.2c2.3,0,3.8-0.4,4.9-0.9l0.6,2.2c-1.1,0.5-3.2,1.1-6,1.1
				c-5.5,0-8.8-3.7-8.8-9c0-5.4,3.2-9.7,8.5-9.7c5.8,0,7.3,5.1,7.3,8.4c0,0.7,0,1.2-0.1,1.5L212.6,20.9z M222.1,18.6
				c0-2-0.8-5.3-4.5-5.3c-3.4,0-4.7,3.1-5,5.3H222.1z"/>
			<path id="XMLID_92_" class="st0" d="M243.9,29.7c-4.8,0-8.6-3.6-8.6-9.2c0-6,4-9.5,8.9-9.5c5.1,0,8.6,3.8,8.6,9.2
				C252.9,26.8,248.2,29.7,243.9,29.7L243.9,29.7z M244.1,27.3c3.1,0,5.4-3,5.4-6.9c0-3.1-1.5-6.8-5.3-6.8s-5.5,3.6-5.5,6.9
				C238.7,24.3,240.9,27.3,244.1,27.3L244.1,27.3z"/>
			<path id="XMLID_28_" class="st0" d="M256.7,16.3c0-1.8,0-3.4-0.2-4.8h2.9l0.2,3h0.1c0.9-1.6,3-3.4,5.9-3.4c2.4,0,6.3,1.4,6.3,7.6
				v10.7h-3.3V19.2c0-2.9-1-5.3-4.2-5.3c-2.1,0-3.8,1.5-4.4,3.4c-0.1,0.4-0.2,1-0.2,1.5v10.8h-3.2V16.3z"/>
			<path id="XMLID_27_" class="st0" d="M288.5,7.1v4.3h4.7v2.4h-4.7v9.6c0,2.2,0.6,3.5,2.4,3.5c0.9,0,1.4-0.1,1.8-0.2l0.1,2.4
				c-0.6,0.2-1.6,0.4-2.9,0.4c-1.5,0-2.7-0.5-3.5-1.3c-0.9-1-1.2-2.5-1.2-4.7v-9.8h-2.7v-2.4h2.7V8.1L288.5,7.1z"/>
			<path id="XMLID_26_" class="st0" d="M296.7,3.2h3.3v11.1h0.1c0.5-0.9,1.3-1.7,2.3-2.2c0.9-0.6,2.1-0.9,3.4-0.9
				c2.3,0,6.2,1.4,6.2,7.6v10.6h-3.3V19.1c0-3-1.1-5.3-4.2-5.3c-2.1,0-3.8,1.4-4.4,3.3c-0.2,0.4-0.2,0.9-0.2,1.5v10.8h-3.3
				L296.7,3.2L296.7,3.2z"/>
			<path id="XMLID_86_" class="st0" d="M318.8,20.9c0.1,4.4,2.9,6.2,6.1,6.2c2.3,0,3.8-0.4,5-0.9l0.6,2.2c-1.1,0.5-3.2,1.1-6,1.1
				c-5.5,0-8.8-3.7-8.8-9c0-5.4,3.2-9.7,8.4-9.7c5.8,0,7.3,5.1,7.3,8.4c0,0.7,0,1.2-0.1,1.5L318.8,20.9z M328.2,18.6
				c0-2-0.8-5.3-4.5-5.3c-3.4,0-4.7,3.1-5,5.3H328.2z"/>
			<path id="XMLID_83_" class="st0" d="M344.3,8.2c-1.2,0-2-0.9-2-2.1c0-1.1,0.8-2,2.1-2c1.2,0,2,0.9,2,2
				C346.5,7.2,345.6,8.2,344.3,8.2L344.3,8.2z M342.8,29.3V11.5h3.3v17.8H342.8z"/>
			<path id="XMLID_80_" class="st0" d="M351.4,4.8c1.5-0.3,3.6-0.5,6.1-0.5c3.2,0,5.5,0.7,6.9,2c1.3,1.2,2.2,3,2.2,5.2
				s-0.7,4-1.9,5.3c-1.7,1.8-4.5,2.7-7.6,2.7c-0.9,0-1.8,0-2.5-0.2v10h-3.2V4.8z M354.5,16.7c0.7,0.2,1.6,0.3,2.6,0.3
				c3.9,0,6.2-1.9,6.2-5.3c0-3.4-2.3-4.9-5.9-4.9c-1.4,0-2.4,0.1-3.1,0.3v9.6H354.5z"/>
			<path id="XMLID_19_" class="st0" d="M370.5,3.2h3.3v11.1h0.1c0.5-0.9,1.3-1.7,2.3-2.2c0.9-0.6,2.1-0.9,3.4-0.9
				c2.4,0,6.2,1.4,6.2,7.6v10.6h-3.3V19.1c0-3-1.1-5.3-4.2-5.3c-2.1,0-3.8,1.4-4.4,3.3c-0.2,0.4-0.2,0.9-0.2,1.5v10.8h-3.3
				L370.5,3.2L370.5,3.2z"/>
			<path id="XMLID_76_" class="st0" d="M398,29.7c-4.8,0-8.6-3.6-8.6-9.2c0-6,4-9.5,8.9-9.5c5.1,0,8.6,3.8,8.6,9.2
				C406.9,26.8,402.3,29.7,398,29.7L398,29.7z M398.1,27.3c3.1,0,5.4-3,5.4-6.9c0-3.1-1.5-6.8-5.3-6.8c-3.8,0-5.5,3.6-5.5,6.9
				C392.7,24.3,394.9,27.3,398.1,27.3L398.1,27.3z"/>
			<path id="XMLID_16_" class="st0" d="M410.7,16.3c0-1.8,0-3.4-0.1-4.8h2.9l0.2,3h0.1c0.9-1.6,3-3.4,5.9-3.4c2.4,0,6.3,1.4,6.3,7.6
				v10.7h-3.3V19.2c0-2.9-1.1-5.3-4.2-5.3c-2.1,0-3.8,1.5-4.4,3.4c-0.1,0.4-0.2,1-0.2,1.5v10.8h-3.3L410.7,16.3L410.7,16.3z"/>
			<path id="XMLID_72_" class="st0" d="M432.9,20.9c0.1,4.4,2.9,6.2,6.1,6.2c2.3,0,3.8-0.4,4.9-0.9l0.6,2.2c-1.1,0.5-3.2,1.1-6,1.1
				c-5.5,0-8.8-3.7-8.8-9c0-5.4,3.2-9.7,8.4-9.7c5.8,0,7.3,5.1,7.3,8.4c0,0.7,0,1.2-0.1,1.5L432.9,20.9z M442.4,18.6
				c0-2-0.8-5.3-4.5-5.3c-3.4,0-4.7,3.1-5,5.3H442.4z"/>
		</g>
		<g id="XMLID_52_">
			<path id="XMLID_68_" class="st0" d="M110.9,46.1L89,110.4h10l6.5-19.8h21.2l6.7,19.8h10.3l-21.9-64.3H110.9z M116,56.7
				c0.7,2.9,1.5,5.8,2.5,9.1l5.9,17h-16.8l5.8-17.2C114.5,62.8,115.3,59.9,116,56.7z"/>
			<path id="XMLID_65_" class="st0" d="M171.9,62.7c-6.6,0-11.9,2.5-15.5,7.4l-0.4-6.4h-8.9l0.1,0.8c0.3,4,0.4,8.4,0.4,14.7v49.6
				h9.8v-23.1c3.1,3.6,7.8,5.7,13.3,5.7c5.7,0,10.9-2.2,14.8-6.3c4.3-4.5,6.5-11,6.5-18.7c0-6.8-1.9-12.7-5.7-17.1
				C182.6,65.1,177.5,62.7,171.9,62.7z M169.6,70.8c8.7,0,12.5,8,12.5,16c0,10.3-5,16.6-12.9,16.6c-5.4,0-10.2-3.7-11.5-9.1
				c-0.2-0.8-0.3-1.9-0.3-3.2v-7.8c0-0.7,0.2-1.5,0.3-2.4c0-0.3,0.1-0.5,0.1-0.8C159.3,74.8,164.1,70.8,169.6,70.8z"/>
			<path id="XMLID_62_" class="st0" d="M222,62.7c-6.6,0-11.9,2.5-15.5,7.4l-0.4-6.4h-8.9v0.8c0.3,4,0.4,8.4,0.4,14.7v49.6h9.8
				v-23.1c3.1,3.6,7.8,5.7,13.3,5.7c5.7,0,10.9-2.2,14.8-6.3c4.3-4.5,6.5-11,6.5-18.7c0-6.8-1.9-12.7-5.7-17.1
				C232.7,65.1,227.6,62.7,222,62.7z M219.7,70.8c8.7,0,12.5,8,12.5,16c0,10.3-5,16.6-12.9,16.6c-5.4,0-10.2-3.7-11.5-9.1
				c-0.2-0.8-0.3-1.9-0.3-3.2v-7.8c0-0.7,0.2-1.5,0.3-2.4c0-0.3,0.1-0.5,0.1-0.8C209.4,74.8,214.2,70.8,219.7,70.8z"/>
			<path id="XMLID_7_" class="st0" d="M284.9,73.3c-9.1-3.6-12-6.3-12-11.4c0-4.3,3.5-8.7,11.1-8.7c6.3,0,10.4,2.2,11.4,2.9l0.8,0.5
				l2.7-8.1l-0.5-0.3c-1.6-0.9-6.3-3.2-14.2-3.2c-12.4,0-21.1,7.3-21.1,17.8c0,8.5,5.4,14.4,17.1,18.6c8.2,3.1,11.3,6.2,11.3,11.7
				c0,6.1-4.8,10-12.3,10c-5,0-10.1-1.4-14.1-4l-0.8-0.5l-2.6,8.4l0.5,0.3c3.7,2.4,10.6,4.3,16.4,4.3c16.7,0,22.6-10.2,22.6-18.9
				C301.2,83.5,296.5,77.9,284.9,73.3z"/>
			<path id="XMLID_6_" class="st0" d="M318.8,52.8l-9.6,3v8h-7v7.7h7v23.8c0,5.8,1.1,9.8,3.4,12.3c2.1,2.3,5.5,3.7,9.4,3.7
				c3.7,0,6.3-0.7,7.5-1.1l0.5-0.2l-0.5-7.7l-0.9,0.3c-1.2,0.4-2.4,0.5-4.5,0.5c-3.8,0-5.4-2.3-5.4-7.9V71.6h11.7v-7.7h-11.7V52.8
				H318.8z"/>
			<path id="XMLID_57_" class="st0" d="M354.6,62.7c-13.6,0-23.1,10.2-23.1,24.7c0,14.2,9.2,23.9,22.4,23.9h0.1
				c11.1,0,23.1-7.7,23.1-24.7c0-6.9-2.1-12.8-6.2-17.2C366.7,65.1,361.1,62.7,354.6,62.7z M354.3,70.5c8.8,0,12.7,8.6,12.7,16.5
				c0,9.8-5.4,16.8-12.9,16.8H354c-7.3,0-12.7-6.9-12.7-16.6C341.3,78.8,345.3,70.5,354.3,70.5z"/>
			<path id="XMLID_3_" class="st0" d="M406.9,63.3l-0.6-0.1c-0.8-0.2-1.5-0.3-2.4-0.3c-5.1,0-9.7,3-12.2,7.8l-0.3-6.8h-8.8l0.1,0.8
				c0.3,3.9,0.4,8.1,0.4,14.1l-0.1,31.8h9.8V85.8c0-1.3,0.1-2.6,0.3-3.8c1.1-5.9,5.1-9.8,10.3-9.8c1,0,1.7,0.1,2.6,0.2l1,0.1v-9.3
				H406.9z"/>
			<path id="XMLID_53_" class="st0" d="M428.8,62.6c-12.9,0-22,10.4-22,25.2c0,14.3,9,23.5,22.9,23.5c7.3,0,12.4-1.6,15.4-3l0.6-0.3
				l-1.8-7.2l-0.8,0.3c-2.6,1.1-6.2,2.1-12.2,2.1c-4.3,0-14-1.4-14.6-14.2l31.4,0.1l0.1-0.6c0.2-1,0.3-2.3,0.3-4.1
				C448,74.6,443,62.6,428.8,62.6z M428,70.1c3,0,5.4,0.9,7.1,2.7c2.7,2.9,3.3,7,3.4,9.1h-22.2C417.2,76.3,420.8,70.1,428,70.1z"/>
		</g>
	</g>
</g>
</svg>
