<?xml version="1.0" encoding="utf-8"?>
<!-- Generator: Adobe Illustrator 19.0.0, SVG Export Plug-In . SVG Version: 6.00 Build 0)  -->
<svg version="1.1" id="Ebene_1" xmlns="http://www.w3.org/2000/svg" xmlns:xlink="http://www.w3.org/1999/xlink" x="0px" y="0px"
	 viewBox="-262 354 86 86" style="enable-background:new -262 354 86 86;" xml:space="preserve">
<style type="text/css">
	.st0{fill:#28A6BD;}
</style>
<path class="st0" d="M-198.5,425c-5.6,5.5-12.9,8.6-20.6,8.6c0,0,0,0,0,0h-0.3c-16.2-0.1-29.4-13.5-29.3-29.8
	c0.1-16.1,13.3-29.1,29.5-29.1l0.2,0c7.9,0,15.3,3.1,20.8,8.7c5.5,5.6,8.5,13,8.4,21C-189.9,412.1-193,419.5-198.5,425z
	 M-183.9,397.9c-1-5.4-3.1-10.3-6-14.5c0.9-1.3,1.4-3,1.4-4.7c0-4.8-3.9-8.7-8.7-8.7c-2.2,0-4.2,0.8-5.7,2.1
	c-3.1-1.6-6.5-2.8-10.2-3.5c-3.1-0.6-3.3-1.2-3-4.3l0.1-0.8h0.8c0.5,0,1.1,0,1.6,0c0.5,0,1,0,1.5,0c0.7,0,1.3,0,1.9,0
	c1.6-0.1,2.4-0.7,2.5-2.1c0.2-1.6,0.2-3.4,0-5.2c-0.1-0.7-0.4-1.8-1.9-1.8c-3.5,0-6.8,0-9.9,0c-3.4,0-6.6,0-9.7,0
	c-1.4,0-2.3,1-2.3,2.4c0,0.9,0,1.9,0,2.8l0,0.5c0,2.4,1,3.4,3.4,3.4c1.2,0,2.4,0,3.6,0c0.5,0,1.1,0,1.6,0h0.8l0.1,0.8
	c0.3,3.1,0.1,3.7-2.9,4.2c-0.3,0-0.5,0.1-0.8,0.2c-0.2,0.1-0.4,0.1-0.7,0.1c-3.2,0.6-6.2,1.6-9.1,3.1c-1.5-1.2-3.4-1.9-5.5-1.9
	c-4.8,0-8.7,3.9-8.7,8.7c0,1.6,0.5,3,1.2,4.3c-0.2,0.3-0.5,0.7-0.7,1c-5.5,8-7.4,17.6-5.6,26.8c3.5,17.2,18,29.3,35.3,29.3
	c2.6,0,5.1-0.3,7.7-0.8C-193,435.4-180.3,416.4-183.9,397.9z"/>
<path class="st0" d="M-216.8,410.4c-1.9,1.3-4.3,1.2-6.1-0.1c-1.8-1.3-2.7-3.8-1.9-5.9c0.4-1.1,0.2-1.9-0.4-2.8
	c-1.5-2.5-3-5-4.5-7.5c-0.3-0.4-0.5-0.9-0.7-1.3c-0.4-0.9-0.5-1.8,0.5-2.4c1-0.6,1.8-0.1,2.5,0.7c1.4,1.9,2.8,3.8,4.2,5.7
	c0.4,0.5,0.7,1.1,1.1,1.6c0.9,1.2,1.7,2.2,3.5,2.4c2.2,0.2,3.6,1.8,4.1,4C-214,407.1-214.9,409.2-216.8,410.4z"/>
</svg>
