<?xml version="1.0" encoding="utf-8"?>
<!-- Generator: Adobe Illustrator 19.0.0, SVG Export Plug-In . SVG Version: 6.00 Build 0)  -->
<svg version="1.1" id="Layer_1" xmlns="http://www.w3.org/2000/svg" xmlns:xlink="http://www.w3.org/1999/xlink" x="0px" y="0px"
	 viewBox="0 0 612 792" style="enable-background:new 0 0 612 792;" xml:space="preserve">
<style type="text/css">
	.st0{fill:#2AA6BD;}
	.st1{clip-path:url(#SVGID_2_);fill:#2AA6BD;}
	.st2{clip-path:url(#SVGID_4_);}
	.st3{clip-path:url(#SVGID_6_);fill:#FFFFFF;}
</style>
<g>
	<path class="st0" d="M376.4,341.3c-8.5-3.4-10.9-5.5-10.9-9.2c0-3,2.2-6.4,8.6-6.4c5.6,0,9.9,2.2,10,2.2c0.5,0.2,1,0.4,1.5,0.4
		c1.2,0,2.3-0.7,2.8-1.9l1.5-3.9c0.5-1.4-0.3-2.7-1.3-3.1c-3.5-1.5-10.2-2.7-10.3-2.7c-0.1,0-0.5-0.1-0.5-0.5v-5.7
		c0-1.7-1.4-3.1-3.2-3.1h-2.8c-1.8,0-3.2,1.4-3.2,3.1v6c0,0.5-0.5,0.7-0.7,0.7c-8.5,2-13.9,8.3-13.9,16.1c0,9.8,8.1,14.3,16.9,17.6
		c7,2.8,9.9,5.5,9.9,9.6c0,4.4-4,7.6-9.8,7.6c-5,0-11.7-3.1-11.7-3.2c-0.4-0.2-0.9-0.3-1.4-0.3c-1.3,0-2.4,0.8-2.8,2l-1.5,4
		c-0.5,1.5,0.3,2.7,1.3,3.2c4.1,2.1,12.1,3.4,12.4,3.5c0.1,0,0.6,0.2,0.6,0.6v6c0,1.7,1.4,3.1,3.2,3.1h2.9c1.8,0,3.2-1.4,3.2-3.1
		v-6.3c0-0.6,0.4-0.6,0.5-0.7c9.1-2,14.7-8.7,14.7-17C392.3,351.2,387.5,345.7,376.4,341.3L376.4,341.3z"/>
	<g>
		<g>
			<defs>
				<rect id="SVGID_1_" x="164" y="272" width="283.9" height="248"/>
			</defs>
			<clipPath id="SVGID_2_">
				<use xlink:href="#SVGID_1_"  style="overflow:visible;"/>
			</clipPath>
			<path class="st1" d="M372.8,272c-41.5,0-75.1,33.6-75.1,75.1c0,41.4,33.6,75.1,75.1,75.1c41.4,0,75.1-33.6,75.1-75.1
				C447.8,305.6,414.2,272,372.8,272L372.8,272z M372.8,404.7c-31.8,0-57.7-25.8-57.7-57.7c0-31.8,25.8-57.7,57.7-57.7
				c31.8,0,57.7,25.8,57.7,57.7C430.4,378.9,404.6,404.7,372.8,404.7L372.8,404.7z"/>
		</g>
		<g>
			<defs>
				<rect id="SVGID_3_" x="164" y="272" width="283.9" height="248"/>
			</defs>
			<clipPath id="SVGID_4_">
				<use xlink:href="#SVGID_3_"  style="overflow:visible;"/>
			</clipPath>
			<path class="st2" d="M432.6,458.5c-16,8.8-37.9,17-59.8,20.4c-19.5,3.1-56.1-4.3-56.1-13c0-3.3,32.1,8.1,51.6,2.9
				c14.9-4,12.8-17.9,4.7-19.8c-8.1-1.8-55.3-19.1-75.5-19.7c-9.5-0.3-33,3.3-44.3,5.2c-3.9,0.6-6.3,0.6-6.6,4.3
				c-1.1,17.3-3.4,52.7-4.6,71.1c0,0.4,0.5,5.6,4.8,1.9c4.7-4,11.4-8.5,17.5-7.1c9.7,2.2,93.1,17.5,104.7,14.8
				c16.5-3.8,63.1-31.5,72.1-40.1C455,466.1,444.2,452.1,432.6,458.5L432.6,458.5z"/>
		</g>
		<g>
			<defs>
				<rect id="SVGID_5_" x="164" y="272" width="283.9" height="248"/>
			</defs>
			<clipPath id="SVGID_6_">
				<use xlink:href="#SVGID_5_"  style="overflow:visible;"/>
			</clipPath>
			<path class="st3" d="M223.5,433.8l-43.7-2.2c-3.4-0.2-6.8,2.4-7.7,5.7l-7.9,72.2c-0.8,3.3,1.2,6.1,4.6,6.2h48.5
				c3.4,0.1,6.4-2.5,6.6-5.9l5.3-69.6C229.5,436.8,226.9,434,223.5,433.8L223.5,433.8z M197.8,506.1c-6.7,0-12.1-5.4-12.1-12.1
				s5.4-12.1,12.1-12.1c6.7,0,12.1,5.4,12.1,12.1C209.9,500.7,204.5,506.1,197.8,506.1L197.8,506.1z"/>
		</g>
	</g>
</g>
</svg>
