<?xml version="1.0" encoding="utf-8"?>
<!-- Generator: Adobe Illustrator 19.0.0, SVG Export Plug-In . SVG Version: 6.00 Build 0)  -->
<svg version="1.1" id="Ebene_1" xmlns="http://www.w3.org/2000/svg" xmlns:xlink="http://www.w3.org/1999/xlink" x="0px" y="0px"
	 viewBox="-262 354 86 86" style="enable-background:new -262 354 86 86;" xml:space="preserve">
<style type="text/css">
	.st0{fill:#26A5BC;}
	.st1{clip-path:url(#SVGID_2_);fill:#2AA5BC;}
	.st2{clip-path:url(#SVGID_4_);fill:#26A5BC;}
	.st3{clip-path:url(#SVGID_6_);fill:#23A5BC;}
</style>
<g>
	<path class="st0" d="M-197.7,385.9c-2.5-1-3.3-1.6-3.3-2.7c0-0.9,0.7-1.9,2.6-1.9c1.7,0,3,0.7,3,0.7c0.1,0.1,0.3,0.1,0.4,0.1
		c0.4,0,0.7-0.2,0.8-0.6l0.5-1.2c0.2-0.4-0.1-0.8-0.4-0.9c-1-0.5-3.1-0.8-3.1-0.8s-0.1,0-0.1-0.2v-1.7c0-0.5-0.4-0.9-1-0.9h-0.8
		c-0.5,0-1,0.4-1,0.9v1.8c0,0.1-0.1,0.2-0.2,0.2c-2.6,0.6-4.1,2.5-4.1,4.9c0,2.9,2.4,4.4,5.2,5.4c2.1,0.8,3,1.7,3,2.9
		c0,1.3-1.2,2.3-2.9,2.3c-1.5,0-3.5-0.9-3.5-0.9c-0.1-0.1-0.3-0.1-0.4-0.1c-0.4,0-0.7,0.2-0.8,0.6l-0.4,1.2c-0.2,0.4,0.1,0.8,0.4,1
		c1.2,0.6,3.6,1,3.7,1c0,0,0.2,0.1,0.2,0.2v1.8c0,0.5,0.4,0.9,1,0.9h0.9c0.5,0,1-0.4,1-0.9V397c0-0.2,0.1-0.2,0.2-0.2
		c2.7-0.6,4.5-2.6,4.5-5.2C-192.9,388.9-194.3,387.2-197.7,385.9L-197.7,385.9z"/>
	<g>
		<g>
			<defs>
				<rect id="SVGID_1_" x="-262" y="364.9" width="86" height="75.1"/>
			</defs>
			<clipPath id="SVGID_2_">
				<use xlink:href="#SVGID_1_"  style="overflow:visible;"/>
			</clipPath>
			<path class="st1" d="M-198.8,364.9c-12.5,0-22.8,10.2-22.8,22.8c0,12.5,10.2,22.8,22.8,22.8c12.5,0,22.8-10.2,22.8-22.8
				C-176,375-186.2,364.9-198.8,364.9L-198.8,364.9z M-198.8,405.1c-9.6,0-17.5-7.8-17.5-17.5c0-9.6,7.8-17.5,17.5-17.5
				c9.6,0,17.5,7.8,17.5,17.5S-189.2,405.1-198.8,405.1L-198.8,405.1z"/>
		</g>
		<g>
			<defs>
				<rect id="SVGID_3_" x="-262" y="364.9" width="86" height="75.1"/>
			</defs>
			<clipPath id="SVGID_4_">
				<use xlink:href="#SVGID_3_"  style="overflow:visible;"/>
			</clipPath>
			<path class="st2" d="M-180.7,421.4c-4.9,2.6-11.4,5.2-18.1,6.2c-5.9,0.9-17-1.3-17-3.9c0-1,9.7,2.4,15.6,0.9
				c4.6-1.2,3.8-5.5,1.4-6c-2.4-0.5-16.8-5.8-22.9-6c-2.8-0.1-10,1-13.5,1.5c-1.2,0.2-1.9,0.2-2,1.3c-0.3,5.3-1,16-1.4,21.6
				c0,0.1,0.2,1.7,1.5,0.6c1.4-1.2,3.4-2.6,5.4-2.1c2.9,0.7,28.2,5.3,31.7,4.5c5-1.1,19.1-9.5,21.9-12.1
				C-173.9,423.7-177.1,419.5-180.7,421.4L-180.7,421.4z"/>
		</g>
		<g>
			<defs>
				<rect id="SVGID_5_" x="-262" y="364.9" width="86" height="75.1"/>
			</defs>
			<clipPath id="SVGID_6_">
				<use xlink:href="#SVGID_5_"  style="overflow:visible;"/>
			</clipPath>
			<path class="st3" d="M-244,413.9l-13.3-0.6c-1,0-2,0.7-2.3,1.7l-2.4,21.9c-0.3,1,0.4,1.8,1.4,1.9h14.7c1,0,1.9-0.8,2-1.8l1.6-21
				C-242.2,414.8-243,414-244,413.9L-244,413.9z M-251.8,435.9c-2,0-3.6-1.6-3.6-3.6s1.6-3.6,3.6-3.6s3.6,1.6,3.6,3.6
				C-248.1,434.1-249.8,435.9-251.8,435.9L-251.8,435.9z"/>
		</g>
	</g>
</g>
</svg>
