<?xml version="1.0" encoding="utf-8"?>
<!-- Generator: Adobe Illustrator 19.0.0, SVG Export Plug-In . SVG Version: 6.00 Build 0)  -->
<svg version="1.1" id="Ebene_1" xmlns="http://www.w3.org/2000/svg" xmlns:xlink="http://www.w3.org/1999/xlink" x="0px" y="0px"
	 viewBox="-262 354 86 86" style="enable-background:new -262 354 86 86;" xml:space="preserve">
<style type="text/css">
	.st0{clip-path:url(#SVGID_2_);fill:#28A6BD;}
	.st1{clip-path:url(#SVGID_4_);fill:#28A6BD;}
	.st2{clip-path:url(#SVGID_6_);fill:#28A6BD;}
	.st3{clip-path:url(#SVGID_8_);fill:#28A6BD;}
</style>
<g>
	<defs>
		<rect id="SVGID_1_" x="-262" y="355" width="85" height="85"/>
	</defs>
	<clipPath id="SVGID_2_">
		<use xlink:href="#SVGID_1_"  style="overflow:visible;"/>
	</clipPath>
	<path class="st0" d="M-231.2,405.1c0-1.3,0.1-2.4,0.4-3.5c0.3-1.1,0.6-2.1,1.2-3.1c0.5-1,1.2-2,2-2.9c0.8-1,1.7-1.9,2.8-2.9
		l2.3-2.2c0.6-0.6,1.2-1.1,1.5-1.6c0.4-0.5,0.7-1,0.9-1.4c0.2-0.5,0.4-1,0.4-1.6c0.1-0.6,0.1-1.2,0.1-1.9c0-2.4-0.9-3.5-2.8-3.5
		c-0.7,0-1.3,0.1-1.7,0.4c-0.4,0.3-0.7,0.7-1,1.2c-0.2,0.5-0.4,1.1-0.4,1.8c-0.1,0.7-0.1,1.4-0.1,2.1h-5.5v-1.1
		c0-2.7,0.7-4.7,2.1-6.1c1.4-1.4,3.7-2.1,6.7-2.1c2.9,0,5,0.7,6.4,2c1.4,1.3,2.1,3.3,2.1,5.7c0,0.9-0.1,1.8-0.2,2.6
		c-0.2,0.8-0.4,1.5-0.8,2.3c-0.3,0.7-0.8,1.4-1.4,2.1s-1.2,1.4-2.1,2.1l-3.2,3c-0.9,0.8-1.5,1.5-2,2.3c-0.5,0.7-0.8,1.4-0.9,1.9
		h10.7v4.5L-231.2,405.1L-231.2,405.1z"/>
</g>
<g>
	<defs>
		<rect id="SVGID_3_" x="-262" y="355" width="85" height="85"/>
	</defs>
	<clipPath id="SVGID_4_">
		<use xlink:href="#SVGID_3_"  style="overflow:visible;"/>
	</clipPath>
	<path class="st1" d="M-202,383.9l-5.5,10.8h5.6L-202,383.9L-202,383.9z M-202.6,376.6h6v18.1h3.4v4.5h-3.4v5.9h-5.3v-5.9H-212v-4.7
		L-202.6,376.6z"/>
</g>
<g>
	<defs>
		<rect id="SVGID_5_" x="-262" y="355" width="85" height="85"/>
	</defs>
	<clipPath id="SVGID_6_">
		<use xlink:href="#SVGID_5_"  style="overflow:visible;"/>
	</clipPath>
	<path class="st2" d="M-196.1,423.8c-0.9,0-1.8-0.5-2.3-1.3c-0.8-1.3-0.4-2.9,0.9-3.6c10.6-6.5,16.5-18.7,14.9-31
		c-1.1-8.4-5.3-15.8-12-21c-6.7-5.2-15-7.4-23.3-6.3c-9.5,1.2-17.8,6.6-22.9,14.8c-0.8,1.2-2.4,1.6-3.7,0.9
		c-1.2-0.8-1.6-2.4-0.9-3.7c5.9-9.5,15.6-15.8,26.7-17.3c9.8-1.3,19.4,1.4,27.2,7.4c7.8,6,12.8,14.7,14,24.5
		c1.9,14.4-5,28.6-17.4,36.2C-195.1,423.6-195.6,423.8-196.1,423.8z"/>
</g>
<g>
	<defs>
		<rect id="SVGID_7_" x="-262" y="355" width="85" height="85"/>
	</defs>
	<clipPath id="SVGID_8_">
		<use xlink:href="#SVGID_7_"  style="overflow:visible;"/>
	</clipPath>
	<path class="st3" d="M-235.3,413c-8.2-8.3-8.5-12.1-9-13.9c-0.5-1.9,2.7-5.9,3.3-7.1c0.6-1.2,0.2-3.1-0.8-4.1l-7.3-7.4
		c-1-1-2.8-1.3-4-0.7c0,0-4.4,2.8-6.5,4.9c-4.4,4.3-4.7,17.4,15.2,37.4c19.8,20,32.9,19.9,37.2,15.6c2.1-2.1,4.9-6.5,4.9-6.5
		c0.6-1.2,0.3-3-0.7-4l-7.3-7.4c-1-1-2.8-1.4-4-0.8c-1.2,0.6-5.3,3.8-7.2,3.2C-223.3,421.7-227.1,421.3-235.3,413L-235.3,413z"/>
</g>
</svg>
