<?xml version="1.0" encoding="utf-8"?>
<!-- Generator: Adobe Illustrator 19.0.0, SVG Export Plug-In . SVG Version: 6.00 Build 0)  -->
<svg version="1.1" id="Ebene_1" xmlns="http://www.w3.org/2000/svg" xmlns:xlink="http://www.w3.org/1999/xlink" x="0px" y="0px"
	 viewBox="-262 354 86 86" style="enable-background:new -262 354 86 86;" xml:space="preserve">
<style type="text/css">
	.st0{fill-rule:evenodd;clip-rule:evenodd;fill:#28A6BD;}
</style>
<path class="st0" d="M-238.3,392.2c-1.4,0.9-3.6,2.2-6.4,2.2h-5c-2.6-0.2-4.3-1-3.6-3.8c0.2-0.3,0.2-0.9,0.2-1.2
	c3.4-15.7,17.4-27.4,34.1-27.4c16.9,0,31,12,34.2,27.9c0,0.2,0,0.3,0.2,0.5c0,0.3,0.2,0.7,0.2,1c0.2,2.1-1.5,2.6-3.8,2.8h-5
	c-2.9,0-5.5-1.5-6.7-2.4c-0.2-0.2-0.5-0.5-0.9-0.7c-3.6-2.6-10.3-4.3-18.2-4.3C-227.6,386.8-235.2,389.1-238.3,392.2z M-211.4,407.5
	c0,0-5.2,3.6-5.2,8.6v11.7c2.8,11.2,28-6.2,31.7-23.6c0,0-0.7-4.8-6.4-4.8c-5.7,0-11,1.4-12.4,2.4
	C-206.1,403.9-208.8,405.9-211.4,407.5z M-225.5,408.2c1.4,1.2,3.6,3.8,4,6.9v12.6c-3.3,11-28.2-6.4-31.7-23.6h0.2
	c0,0,0.7-4.8,6.4-4.8c5.2,0,10.2,1,11.9,2.1c2.8,2.4,6.2,4.8,9.3,6.7V408.2z M-225,401.5l4.5-4l1-6c-3.6,0.2-6.4,3.1-6.4,6.7
	c0,1.2,0.3,2.2,0.9,3.1V401.5z M-213.1,401.6l-5.9-1.7l-5.7,2.1c1.2,1.9,3.3,3.1,5.7,3.1S-214.4,403.7-213.1,401.6z M-218.8,391.5
	l1.4,5.9l4.6,4c0.5-0.9,0.7-1.9,0.7-3.1C-212.1,394.6-215,391.5-218.8,391.5z M-219,390.3c4.5,0,8.1,3.6,8.1,8.1
	c0,4.5-3.6,8.1-8.1,8.1s-8.1-3.6-8.1-8.1C-227.1,393.9-223.5,390.3-219,390.3z M-219,354.5c23.4,0,42.5,18.9,42.5,42.5
	c0,23.4-18.9,42.5-42.5,42.5c-23.4,0-42.5-18.9-42.5-42.5C-261.5,373.6-242.6,354.5-219,354.5z"/>
</svg>
